<?xml version="1.0" encoding="UTF-8"?>
<svg width="18" height="15" viewBox="0 0 77 86" version="1.1" xmlns="http://www.w3.org/2000/svg" xmlns:xlink="http://www.w3.org/1999/xlink">
    <!-- Generator: Sketch 55.2 (78181) - https://sketchapp.com -->
    <title>remixd-logo-slavisa</title>
    <desc>Created with Sketch.</desc>
    <g id="Page-1" stroke="none" stroke-width="1" fill="none" fill-rule="evenodd">
        <g id="remixd-logo-slavisa">
            <g id="Group">
                <path d="M73.15,24.53 C73.15,24.46 73.15,24.48 73.15,24.53 C73.15,24.57 73.15,24.59 73.15,24.53 Z" id="Path"></path>
                <path d="M73.11,24.54 C73.11,24.55 73.11,24.56 73.11,24.57 C73.12,24.66 73.13,24.75 73.13,24.84 C73.14,25 73.14,24.65 73.15,24.53 C73.15,24.41 73.14,24.05 73.13,24.22 C73.13,24.31 73.12,24.4 73.11,24.49 C73.11,24.5 73.11,24.5 73.11,24.51 C73.11,24.52 73.11,24.52 73.11,24.53 C73.11,24.53 73.11,24.54 73.11,24.54 Z" id="Path" fill="#FFFFFF" fill-rule="nonzero"></path>
                <path d="M58.18,48.93 C71.1,47.68 81.23,38.77 81.23,25.53 C81.23,11.45 69.78,0 55.71,0 L0,0 L10.02,12.08 L56.68,12.08 C63.54,12.08 69.11,17.64 69.12,24.5 C69.12,24.49 69.12,24.49 69.12,24.48 C69.13,24.39 69.14,24.3 69.14,24.21 C69.15,24.05 69.15,24.4 69.16,24.52 C69.16,24.47 69.16,24.46 69.16,24.52 C69.16,24.58 69.16,24.57 69.16,24.52 C69.16,24.64 69.15,25 69.14,24.83 C69.14,24.74 69.13,24.65 69.12,24.56 C69.12,24.55 69.12,24.54 69.12,24.53 C69.11,31.39 63.54,36.95 56.68,36.95 L32.32,36.95 L42.32,49.01 L42.33,49.02 L42.33,49.02 L71.34,86 L87.28,86 L58.18,48.93 Z" id="Path" fill="#FFFFFF" fill-rule="nonzero"></path>
                <path d="M73.11,24.54 C73.11,24.53 73.11,24.52 73.11,24.52 C73.11,24.51 73.11,24.51 73.11,24.5 C73.11,24.51 73.11,24.51 73.11,24.52 C73.11,24.53 73.11,24.54 73.11,24.54 Z" id="Path" fill="#FFFFFF" fill-rule="nonzero"></path>
            </g>
        </g>
    </g>
</svg>